<?xml version="1.0" encoding="utf-8"?>
<!-- Generator: Adobe Illustrator 25.4.1, SVG Export Plug-In . SVG Version: 6.00 Build 0)  -->
<svg version="1.1" id="Layer_1" xmlns="http://www.w3.org/2000/svg" xmlns:xlink="http://www.w3.org/1999/xlink" x="0px" y="0px"
	 viewBox="0 0 1210 217" style="enable-background:new 0 0 1210 217;" xml:space="preserve">
<style type="text/css">
	.st0{fill:#004A7F;}
</style>
<path class="st0" d="M17.6,43.7l43.6,110.7l43.4-110.7h17.6L68.4,175.3H53.9L0,43.7H17.6z"/>
<path class="st0" d="M152.4,177.2c-4.4,0-8.7-0.7-12.8-2.3c-3.8-1.5-7.3-3.6-10.3-6.4c-2.9-2.7-5.2-5.9-6.9-9.5
	c-1.7-3.8-2.6-7.9-2.5-12c0-4.2,1-8.4,3-12.1c2.1-3.7,4.9-6.9,8.4-9.4c4-2.7,8.4-4.8,13-6.1c5.3-1.5,10.9-2.3,16.4-2.2
	c4.8,0,9.5,0.5,14.2,1.3c4.4,0.7,8.7,1.9,12.8,3.5v-7.8c0-7.9-2.2-14.1-6.7-18.6c-4.5-4.5-10.8-6.8-18.9-6.8
	c-9.8,0-20,3.8-30.8,11.3L126,89.5c12.5-8.4,25-12.6,37.6-12.6c12.7,0,22.7,3.4,29.8,10.2s10.7,16.4,10.7,28.7v39.5
	c0,3.8,1.7,5.8,5.2,5.9v14.1c-1.7,0.2-3.1,0.4-4.3,0.6c-1.2,0.1-2.3,0.2-3.5,0.2c-2.8,0.1-5.6-0.9-7.7-2.9c-1.9-1.9-3.1-4.3-3.4-7
	l-0.4-6.9c-4.2,5.7-9.9,10.3-16.4,13.2C166.9,175.6,159.7,177.2,152.4,177.2z M156.6,164.9c5.6,0,11.1-1.1,16.2-3.2
	c4.5-1.8,8.5-4.8,11.4-8.6c2.3-2.4,3.5-4.8,3.5-7.2v-14.3c-7.9-3.1-16.2-4.7-24.7-4.6c-8.2,0-14.8,1.7-19.9,5.2
	c-5.1,3.5-7.7,8-7.7,13.5c0,2.6,0.5,5.2,1.6,7.6c1,2.3,2.6,4.4,4.4,6.1c2,1.8,4.3,3.2,6.8,4.1C151,164.5,153.8,165,156.6,164.9z"/>
<path class="st0" d="M230.6,40h16.3v110.3c0,3.6,1,6.4,2.9,8.4c1.9,2,4.6,3.1,8.1,3.1c1.6,0,3.2-0.2,4.8-0.6
	c1.8-0.4,3.5-0.9,5.2-1.6l2.6,13.2c-3.1,1.2-6.3,2.2-9.6,2.8c-3.2,0.7-6.5,1.1-9.8,1.1c-6.3,0-11.3-1.8-14.9-5.4
	c-3.6-3.6-5.5-8.6-5.5-15V40z"/>
<path class="st0" d="M283.6,40h16.3v110.3c0,3.6,1,6.4,2.9,8.4c1.9,2,4.6,3.1,8.1,3.1c1.6,0,3.2-0.2,4.8-0.6
	c1.8-0.4,3.5-0.9,5.2-1.6l2.6,13.2c-3.1,1.2-6.3,2.2-9.6,2.8c-3.2,0.7-6.5,1.1-9.8,1.1c-6.3,0-11.3-1.8-14.9-5.4
	c-3.6-3.6-5.5-8.6-5.5-15V40z"/>
<path class="st0" d="M379,177.2c-6.9,0.1-13.7-1.3-20-4c-5.9-2.5-11.2-6.2-15.6-10.8c-4.4-4.6-7.8-10.1-10.1-16
	c-2.4-6.2-3.6-12.7-3.6-19.4c0-6.6,1.2-13.1,3.6-19.3c2.3-5.9,5.8-11.3,10.2-15.9c4.4-4.6,9.8-8.3,15.7-10.8c6.3-2.7,13.1-4.1,20-4
	c20-0.3,38,11.9,45,30.7c2.3,5.9,3.4,12.3,3.4,18.6c0,1.4,0,2.6-0.1,3.7c0,0.9-0.1,1.7-0.3,2.6H347c0.3,4.6,1.4,9,3.3,13.2
	c3.5,7.6,9.6,13.6,17.3,16.9c3.8,1.6,7.9,2.4,12,2.4c2.9,0,5.9-0.4,8.7-1.2c2.8-0.8,5.5-1.9,8-3.2c2.4-1.3,4.6-3,6.6-5
	c1.9-1.9,3.4-4.2,4.4-6.7l14.1,3.9c-1.6,3.6-3.9,6.9-6.6,9.8c-2.8,3-6.1,5.6-9.6,7.7c-3.8,2.2-7.9,4-12.1,5.1
	C388.5,176.6,383.8,177.2,379,177.2z M412.2,120.4c-0.3-4.4-1.5-8.7-3.4-12.7c-1.8-3.7-4.2-7.1-7.2-9.9c-9.3-8.6-22.8-11.1-34.6-6.4
	c-3.8,1.5-7.2,3.7-10.1,6.5c-2.9,2.8-5.3,6.2-7,9.9c-1.8,4-2.9,8.2-3.2,12.6L412.2,120.4z"/>
<path class="st0" d="M447.5,201.6c1.6,0.2,3.2,0.4,4.8,0.6s2.9,0.2,3.7,0.2c1.4,0,2.8-0.3,4-1c1.5-1,2.7-2.4,3.5-4
	c1.5-2.7,2.8-5.4,4-8.2c1.5-3.5,3.3-8.1,5.6-13.8l-41-96.8h16.9l33,82.1l30-82.1h15.6l-47,122.2c-1.8,4.5-4.8,8.4-8.6,11.4
	c-4,3.3-9.5,4.9-16.6,4.9c-1.1,0-2.3-0.1-3.4-0.2c-1.5-0.2-2.9-0.4-4.4-0.7V201.6z"/>
<path class="st0" d="M641.9,176.2c-8.8,0.1-17.4-1.8-25.3-5.7c-7.5-3.6-14.1-8.7-19.5-15c-5.5-6.3-9.8-13.6-12.6-21.4
	c-2.9-7.9-4.4-16.2-4.4-24.7c0-8.6,1.6-17.2,4.7-25.2c3-7.8,7.5-15,13.1-21.3c5.5-6.2,12.3-11.2,19.7-14.8
	c7.7-3.7,16.2-5.5,24.8-5.5c8.7-0.1,17.4,1.9,25.2,5.8c7.4,3.8,14,9,19.5,15.3c10.9,12.8,17,29,17.1,45.8c0,8.6-1.6,17.2-4.7,25.2
	c-3,7.8-7.4,15-13,21.2c-5.5,6.1-12.2,11.1-19.7,14.6C658.9,174.4,650.4,176.3,641.9,176.2z M596.9,109.5c0,6.6,1.1,13.1,3.2,19.4
	c2,6,5.2,11.6,9.2,16.6c3.9,4.8,8.7,8.7,14.2,11.5c5.7,2.9,12.1,4.3,18.5,4.3c6.6,0.1,13.1-1.5,18.9-4.6c5.5-3,10.3-7,14.2-11.9
	c3.9-5,6.9-10.6,8.9-16.6c4.1-12.4,4.1-25.8-0.2-38.1c-2-6-5.2-11.6-9.3-16.5c-4-4.7-8.8-8.6-14.3-11.4c-11.7-5.7-25.5-5.7-37.2,0.2
	c-5.5,2.9-10.3,6.9-14.2,11.7c-4,4.9-7,10.5-9,16.5C597.9,96.7,596.8,103.1,596.9,109.5L596.9,109.5z"/>
<path class="st0" d="M828.2,141.4c0.1,4.8-1,9.6-3.1,13.9c-2,4.1-4.8,7.8-8.3,10.7c-3.6,3-7.8,5.4-12.2,6.9
	c-4.8,1.6-9.8,2.5-14.9,2.4h-62.5V43.7h65.4c4.3,0,8.6,1,12.4,3c3.6,1.9,6.8,4.5,9.5,7.7c2.6,3.2,4.6,6.8,6,10.8
	c1.4,3.9,2.1,8,2.1,12.1c0,6.4-1.7,12.7-4.9,18.2c-3.2,5.5-8.1,9.9-14,12.4c7.2,2,13.5,6.3,17.9,12.3
	C826,126.4,828.3,133.8,828.2,141.4z M743.8,58.2v43.9h41.9c2.8,0,5.6-0.6,8.2-1.8c2.4-1.1,4.6-2.7,6.4-4.7
	c3.8-4.2,5.9-9.7,5.8-15.4c0-3-0.5-5.9-1.5-8.7c-0.9-2.5-2.3-4.9-4-7c-1.7-2-3.8-3.6-6.1-4.6c-2.4-1.1-5-1.7-7.7-1.7L743.8,58.2z
	 M811.3,138.4c0-2.9-0.5-5.9-1.6-8.6c-1-2.7-2.4-5.2-4.3-7.3c-1.8-2.1-3.9-3.8-6.4-5c-2.5-1.2-5.3-1.9-8.2-1.8h-47.1v45.2h45.8
	c2.9,0,5.9-0.6,8.5-1.9c2.6-1.2,4.9-2.9,6.9-4.9C809,149.9,811.3,144.3,811.3,138.4z"/>
<path class="st0" d="M944.4,157.5c-11.6,12.5-24.9,18.7-40,18.7c-8.5,0.1-16.8-1.9-24.4-5.7c-7.4-3.7-13.9-8.9-19.4-15.1
	c-5.5-6.3-9.9-13.6-12.9-21.4c-3.1-7.9-4.7-16.3-4.7-24.9c-0.1-17.1,6.1-33.6,17.4-46.4c5.4-6.1,12-11.1,19.5-14.5
	c7.6-3.6,16-5.5,24.5-5.4c12.7,0,23.2,2.7,31.4,8c8,5.1,14.5,12.3,18.8,20.8l-12.8,8.9c-4-7.7-9.2-13.3-15.8-17
	c-6.7-3.7-14.3-5.7-22-5.6c-6.3-0.1-12.6,1.4-18.2,4.4c-5.4,2.8-10.1,6.8-13.9,11.5c-3.9,4.9-6.9,10.5-8.9,16.5
	c-2.1,6.2-3.2,12.8-3.2,19.4c0,6.8,1.1,13.5,3.5,19.9c2.2,6,5.5,11.6,9.6,16.5c4,4.7,8.9,8.5,14.5,11.2c5.7,2.7,11.9,4.1,18.2,4.1
	c14.3,0,27.3-6.9,38.7-20.8v-18.2H916v-12.6h42.5v65.6h-14.1V157.5z"/>
<path class="st0" d="M982.4,43.7l39.8,68.6l40.2-68.6h18.2l-50,83.6v48h-16.7v-48.4L964,43.7H982.4z"/>
<path class="st0" d="M1115.5,74.8v100.5h-16.7V43.7h13l81.6,102.5V43.9h16.7v131.4h-14.1L1115.5,74.8z"/>
</svg>
